<?xml version="1.0" encoding="utf-8"?>
<?xml-stylesheet type="text/xsl" href="rss1.xsl"?>
<rss version="2.0" xmlns:atom="http://www.w3.org/2005/Atom" xmlns:content="http://purl.org/rss/1.0/modules/content/" xmlns:dc="http://purl.org/dc/elements/1.1/" xmlns:media="http://search.yahoo.com/mrss/">
<channel>
 <title>Getty</title>
 <link>http://www.gettyimg.com/</link>
 <atom:link href="http://www.gettyimg.com/" rel="self" type="application/rss+xml" />

 
                <item>
                <title><![CDATA[【PRORES HD】Pitbull Feat. Chris Brown - International Love (720p LPCM ProRes)]]></title>
                <link><![CDATA[https://sharemania.us/threads/pitbull-feat-chris-brown-international-love-720p-lpcm-prores.236531/]]></link>
                <description><![CDATA[<article>
<blockquote class="messageText SelectQuoteContainer ugc baseHtml">
<div style="text-align: center"><img src="https://i.imgur.com/b01mEbs.png" class="bbCodeImage LbImage" alt="[​IMG]" data-url="https://i.imgur.com/b01mEbs.png" style=""> <br>
<br>
​</div>
<div class="ToggleTriggerAnchor bbCodeSpoilerContainer">
<button type="button" class="button bbCodeSpoilerButton ToggleTrigger Tooltip JsOnly" data-target="> .SpoilerTarget"><span>Spoiler: <span class="SpoilerTitle">Media Info</span></span></button>
<div class="SpoilerTarget bbCodeSpoilerText"><div style="text-align: left">Format : MPEG-4<br>
Format profile : QuickTime<br>
Codec ID : qt 2005.03 (qt )<br>
File size : 2.63 GiB<br>
Duration : 4 min 39 s<br>
Overall bit rate mode : Variable<br>
Overall bit rate : 80.9 Mb/s<br>
Encoded date : UTC 2011-12-08 18:43:49<br>
Tagged date : UTC 2011-12-08 18:48:51<br>
Writing library : Apple QuickTime<br>
Media/UUID : 6C16C7D0-3ED3-4CB0-B4FB-7D0986DC7832<br>
Video<br>
ID : 1<br>
Format : ProRes<br>
Format version : Version 0<br>
Format profile : 422 HQ<br>
Codec ID : apch<br>
Duration : 4 min 39 s<br>
Bit rate mode : Variable<br>
Bit rate : 79.4 Mb/s<br>
Width : 1 280 pixels<br>
Height : 720 pixels<br>
Display aspect ratio : 16:9<br>
Frame rate mode : Constant<br>
Frame rate : 23.976 (23976/1000) FPS<br>
Color space : YUV<br>
Chroma subsampling : 4:2:2<br>
Scan type : Progressive<br>
Bits/(Pixel*Frame) : 3.591<br>
Stream size : 2.58 GiB (98%)<br>
Writing library : Apple<br>
Language : English<br>
Encoded date : UTC 2011-12-08 18:43:49<br>
Tagged date : UTC 2011-12-08 18:48:51<br>
Color primaries : BT.709<br>
Transfer characteristics : BT.709<br>
Matrix coefficients : BT.709<br>
Audio<br>
ID : 2<br>
Format : PCM<br>
Format settings : Big / Signed<br>
Codec ID : twos<br>
Duration : 4 min 39 s<br>
Bit rate mode : Constant<br>
Bit rate : 1 536 kb/s<br>
Channel(s) : 2 channels<br>
Channel layout : L R<br>
Sampling rate : 48.0 kHz<br>
Bit depth : 16 bits<br>
Stream size : 51.2 MiB (2%)<br>
Language : English<br>
Encoded date : UTC 2011-12-08 18:43:49<br>
Tagged date : UTC 2011-12-08 18:48:51<br>
Other<br>
ID : 3<br>
Type : Time code<br>
Format : QuickTime TC<br>
Duration : 4 min 39 s<br>
Frame rate : 23.976 (23976/1000) FPS<br>
Time code of first frame : 01:00:00:00<br>
Time code of last frame : 01:04:39:02<br>
Time code, stripped : Yes<br>
Language : English<br>
Encoded date : UTC 2011-12-08 18:48:51<br>
Tagged date : UTC 2011-12-08 18:48:51​</div></div>
</div><div style="text-align: center"><br>
Download<br>
<div class="bbCodeBlock bbCodeVfcHH HiddenContent">
<div class="attribution type">Hidden Content:</div>
<blockquote>You must reply before you can see the hidden data contained here.</blockquote>
</div></div>
<div class="messageTextEndMarker">&nbsp;</div>
</blockquote>
</article>]]></description>
                <author><![CDATA[theslothsidd]]></author>
                </item>

                </channel></rss>